/* XPM */
static char *noname[] = {
/* width height ncolors chars_per_pixel */
"100 143 65 1",
/* colors */
"  c #ADADAD",
". c #A5A5A5",
"X c #9D9D9D",
"o c #959595",
"O c #8D8D8D",
"+ c #858585",
"@ c #7D7D7D",
"# c #757575",
"$ c #6D6D6D",
"% c #656565",
"& c #5D5D5D",
"* c #555555",
"= c #4D4D4D",
"- c #FCFCFC",
"; c #FAFAFA",
": c #454545",
"> c #F2F2F2",
", c #3D3D3D",
"< c #EAEAEA",
"1 c #353535",
"2 c #E2E2E2",
"3 c #2D2D2D",
"4 c #DADADA",
"5 c #252525",
"6 c #D2D2D2",
"7 c #1D1D1D",
"8 c #CACACA",
"9 c #151515",
"0 c #C2C2C2",
"q c #0D0D0D",
"w c #BABABA",
"e c #050505",
"r c #B2B2B2",
"t c #AAAAAA",
"y c #A2A2A2",
"u c #9A9A9A",
"i c #929292",
"p c #8A8A8A",
"a c #828282",
"s c #7A7A7A",
"d c #727272",
"f c #6A6A6A",
"g c #626262",
"h c #5A5A5A",
"j c #525252",
"k c #FDFDFD",
"l c #4A4A4A",
"z c #F5F5F5",
"x c #424242",
"c c #EDEDED",
"v c #3A3A3A",
"b c #E5E5E5",
"n c #323232",
"m c #DDDDDD",
"M c #2A2A2A",
"N c #D5D5D5",
"B c #222222",
"V c #CDCDCD",
"C c #1A1A1A",
"Z c #C5C5C5",
"A c #121212",
"S c #BDBDBD",
"D c #0A0A0A",
"F c #B5B5B5",
"G c #020202",
/* pixels */
"kkkkkkkkkkkkkkkkkkkkkkkkkkkkkkkkkkkkkkkkkkkkkkkkkkkkkkkkkkkkkkkkkkkkkkkkkkkkkkkkkkkkkkkkkkkkkkkkkkkk",
"kkkkkkkkkkkkkkkkkkkkkkkkkkkkkkkkkkkkkkkkkkkkkkkkkkkkkkkkkkkkkkkkkkkkkkkkkkkkkkkkkkkkkkkkkkkkkkkkkkkk",
"kkkkkkkk;kkkkkk;kkkkkkkkkkkkkkkkkkkkkkkkkkkkkkkkkkkkkkkkkkkkkkkkkkkkkkkkkkkkkkkkkkkkkkkkkkkkkkkkkkkk",
"kkkkkkkkkkkkkkkkkkkkkkkkkkkkkkkkkkkkkkkkkkkkkkkkkkkkkkkkkkkkkkkkkkkkkkkkkkkkkkkkkkkkkkkkkkkkkkkkkkkk",
"kkkkkkkkkkk;kkkkk;kkkkkkkkkkkkkkkkkkkkkkkkkkkkkkkkkkkkkkkkkkkkkkkkkkkkkkkkkkkkkkkkkkkkkkkkkkkkkkkkkk",
"kkkkkkkkkkkkkkkkkkkkkkkkkkkkkkkkkkkkkkkkkkkkkkkkkkkkkkkkkkkkkkkkkkkkkkkkkkkkkkkkkkkkkkkkkkkkkkkkkkkk",
"kkkkkkkkkkkkkkkkkkkkkkkkkkkkkkkkkkkkkkkkkkkkkkkkkkkkkkkkkkkkkkkkkkkkkkkkkkkkkkkkkkkkkkkkkkkkkkkkkkkk",
"kkkkkkkkkkkkkkkkkkkkkkkkkkkkkkkkkkkkkkkkkkkkkkkkkkkkkkkkkkkkkkkkkkkkkkkkkkkkkkkkkkkkkkkkkkkkkkkkkkkk",
"kkkkkk;kkkkkkkkkkkkkkkkkkkkkkkkkkkkkkkkkkkkkkkkkkkkkkkkkkkkkkkkkkkkkkkkkkkkkkkkkkkkkkkkkkkkkkkkkkkkk",
"kkkkkkkkkkk;kkkk;kkkkkkkkkkkkkkkkkkkkkkkkkkkkkkkkkkk.lexGGj*9jkkkkkkkkkkkkkkkkkkkkkkkkkkkkkkkkkkkkkk",
"kkkkkkkkkkkkkkkkkkkkkkkkkkkkkkkkkkkkkkkkkkkkkkkkkkkkhkkkkkkkkwhs+kkkkkkkkkkkkkkkkkkkkkkkkkkkkkkkkkkk",
"kkkkkkkkkkkkkkkkkkkkkkkkkkkkkkkkkkkkkkkkkkkkkkkkkkk6 kkkkkkkkkkkVeCkkkkkkkkkkkkrsspkkkkkkkkkkkkkkkkk",
"kkkkkkkkkkkkkkkkkkkkkkkkkkkkkkkkkkkkkkkkkkkkkkkkkkkOkkkkkkkkkkkkkk2G2kkkkkkkkkdkkkkekkkkkkkkkkkkkkkk",
"k;kkkk;kkkk;kkkkkkkkkkkkkkkkkkkkkkkkkkkkkkkkkkkkkk.Gkkkckkkkkkkkkkkk@kkkkkkkkskk:kkdokkkkkkkkkkkkkkk",
"kkkkkkkkkkkkkk;kkkkkkkkkkkkkkkkkkkkkkkkkkkkkkkkkkw2rkkkkkkkkkkkkkkkkk1kkkkkkkdkGykuk@kkkkkkkkkkkkkkk",
"kkkkkkkkkkkkkkkkkkkkkkkkkkkkkkkkkkkkkkkkkkkkkkkkkskk*kkkkkkkkkkkkkkkkrZkkkkkkGGtkm k%kkkkkkkkkkkkkkk",
"kkk;kkkkkkkkkkkkkkkkkkkkkkkkkkkkkkkkkkkkkkkkkkkkjkkk$kkkkkkkkkkkkkkkkk=kkkkkkwniw kk@kkkkkkkkkkkkkkk",
"kkkkkkkkkkkkkkkkkkkkkkkkkkkkkkkkkkkkkkkkkkkkkkkk&kkkk3kkkkkkkkkkkkkkkkw6kkkkkk>X6kk4rkkkkkkkkkkkkkkk",
"kkkkkkkkkkkkkkkkkkkkkkkkkkkkkkkkkkkkkkkkkkkkkkkkakkkkk=kkkkkkkkkkkkkkkk=kkkw:vNkkkk$kkkkkkkkkkkkkkkk",
"kkkkkkkkkkk;kkkkkkkkkkkkkkkkkkkkkkkkkkkkkkkkkkkk&k06kkkvckkkkkkkkkkkkkk+zkkqkkkkkk&kkkkkkkkkkkkkkkkk",
"kk;;kk;kkkkkkk;kk;kkkkkkkkkkkkkkkkkkkkkkkkkkkkkukkk+kkkk,kkkkkkkkkkkkkkk%kMkkkkk.ykkkkkkkkkkkkkkkkkk",
"kkkkkkkkkkkkkkkkkkkkkkkkkkkkkkkkkkkkkkkkkkkkkkX8kky+kkkkk:kkkkkkkkkkkkkk$kGZk2Fwykkkkkkkkkkkkkkkkkkk",
"kkkkkkkkkkkkkkkkkkkkkkkkkkkkkkkkkkkkkkkkkkkkNikkkkk+mkkkknckkkkkkkkkkkkk@l*kZM@vGkkkkkkkkkkkkkkkkkkk",
"kkkkkkkkkkkkkkkkkkkkkkkkkkkkkkkkkkkkkkkkkkk4okkkkkkkkkkkkkGkkkkkkkkkkkkkZfikXkc$Ckkkkkkkkkkkkkkkkkkk",
"kkkkkkkkkkkkkkkkkkkkkkkkkkkkkkkkkkkkkkkkkkkjkkkkkkkkkkkkkkGkkkkkkkkkkkkk9ry,>kktkkkkkkkkkkkkkkkkkkkk",
"kkkkkkkkkkkkkkkkkkkkkkkkkkkkkkkkkkkkkkkkkkkk% Zkkkkkkkkkkky.kkkkkkkkkkkXu6f$kkkkkkkkkkkkkkkkkkkkkkkk",
"kkkkkkkkkkkkkkkkkkkkkkkkkkkkkkkkkkkkkkkkkkkk<fVkkkkkkkkkkkm7kkkkkkkkkkkG0bgkkkkkkkkkkkkkkkkkkkkkkkkk",
"kkkkkkkkkkkkkkkkkkkkkkkkkkkkkkkkkkkkkkkkkkkkgkkkkkkkkkkkkkb,kkkkkkkkkkxkFiDkkkkkkkkkkkkkkkkkkkkkkkkk",
"kkkkkkkkkkkkkkkkkkkkkkkkkkkkkkkkkkkkkkkkkkk2GkkkkkkkkkkkkkkqkkkkkkkkkkBFkaGkkkkkkkkkkkkkkkkkkkkkkkkk",
"kkkkkkkkkkkkkkkkkkkkkkkkkkkkkkkkkkkkkkkkkkkkk9kkkkkkkkkkkzk.ykkkkwkkkMktaOzZkkkkkkkkkkkkkkkkkkkkkkkk",
"kkkkkkkkkkkkkkkkkkkkkkkkkkkkkkkkkkkkkkkkkkk:9Aakkkkkkkkkkkakjkkok:kkk*.khnkDkkkkkkkkkkkkkkkkkkkkkkkk",
"kkkkkkkkkkkkkkkkkkkkkkkkkkkkkkkkkkkkkkkkkkk60a=kkkkkkkkkkkkV:kkOk&kkCkfpp8k5kkkkkkkkkkkkkkkkkkkkkkkk",
"kkkkkkkkkkkkkkkkkkkkkkkkkkkkkkkkkkkkkkkkkkktkkkkkkkkkkkkkkrkAkk*k$kb#skd:kknkkkkkkkkkkkkkkkkkkkkkkkk",
"kkkkkkkkkkkkkkkkkkkkkkkkkkkkkkkkkkkkkkkkkkk,kkkkkkkkkkkkkkkkGkkikak7k%rcjkkXZkkkkkkkkkkkkkkkkkkkkkkk",
"kkkkkkkkkkkkkkkkkkkkkkkkkkkkkkkkkkkkkkkkkkdkkkkkkkkkkkkkkp@FCkkub4SV#khOkkkk,kkkkkkkkkkkkkkkkkkkkkkk",
"kkkkkkkkkkkkkkkkkkkkk;kkkkkkkkkkkkkkkkkkkk%kkkkkkkkkkkkk%whkakmVFk3kfkZxkkkk@kkkkkkkkkkkkkkkkkkkkkkk",
"kkkkkkkkkkkkkkkkkkkk,bt2kkkkkkkkkkkkkkkkkkksSkkkkkkkkkk#y<F<dkokkazsk3k+kkkkk:kkkkkkkkkkkkkkkkkkkkkk",
"kkkkkkkkkkkkkkkkkkkkkXugckkkkkkkkkkkkkkkkkkkSOddVkkkkk$kpm<>okpkknk*kh%kkkkkki4kkkkkkkkkkkkkkkkkkkkk",
"kkkkkkkkkkkkkkkkkkkkkkkaikkkkkkkkkkkkkkkkkkkkkkk4rqZFskkk>kgk0>k%z44hk=kkkkkkk:kkkkkkkkkkkkkkkkkkkkk",
"kkkkkkkkkkkkkkkkkkkkkkkk+ikkkkkkkkkkkkkkkkkkkkkkkkGhFFkkkk>Akskkvk*kxmZkkkkkkkkdkkkkkkkkkkkkkkkkkkkk",
"kkkkkkkkkkkkkkkkkkkkkkkkkiikkkkkkkkkkkkkkkkkkkkkkk7D+0kkkk*FbNk,kkp.k*kkkkkkkkkzlkkkkkkkkkkkkkkkkkkk",
"kkkkkkkkkkkkkkkkkkkkkkkkk>u.kkkkkkkkkkkkkkkkkkkkkkGGrF$;kkGkOkk7knkvkdkkkkkkkkkkzdkkkkkkkkkkkkkkkkkk",
"kkkkkkkkkkkkkkkkkkkkkkkkkkZoZkkkkkkkkkkkkkkkkkkkkkMM8$skk*zwkk:kkoNS@@kkkkkkkkkkkzMkkkkkkkkkkkkkkkkk",
"kkkkkkkkkkkkkkkkkkkkkkkkkkkSybkkkkkkkkkkkkkkkkkkkkfDO *kk=kwk>,kvk3kn>g$0kkkkkkkkkkkkkkkkkkkkkkkkkkk",
"kkkkkkkkkkkkkkkkkkkkkkkkkkkku kkkkkkkkkkkkkkkkkkkV+G%uXkGkykk3kkfk+kjkkk*Mkkkkkkkkkkkkkkkkkkkkkkkkkk",
"kkkkkkkkkkkkkkkkkkkkkkkkkkkkkO.kkkkkkkkkkkkkkk4o4k.G@&FS46;k4gkvkvk1gkkkkkG>kkkkkkkkkkkkkkkkkkkkkkkk",
"kkkkkkkkkkkkkkkkkkkkkkkkkkkkkkiukkkkkkkkkkkkmSkSGG&GtrMFktkk9kk%kqkGckkkkkkGkkkkkkkkkkkkkkkkkkkkkkkk",
"kkkkkkkkkkkkkkkkkkkkkkkkkkkkkkcX kkkkkkkkkkukgGGG+;GMxZkOkkutkvk$k#xkkkkkkkk5kkkkkkkkkkkkkkkkkkkkkkk",
"kkkkkkkkkkkkkkkkkkkkkkkkkkkkkkkNoVkkkkkkktjdGGsikkkGGVk+kmkBkkdkMkGhkkkkkkkkkjkkkkkkkkkkkkkkkkkkkkkk",
"kkkkkkkkkkkkkkkkkkkkkkkkkkkkkkkk X<kkkkk ZGG7s<kkkkv;kukcbd2kjku64Ghkkkkkkkkk6ykkkkkkkkkkkkkkkkkkkkk",
"kkkkkkkkkkkkkkkkkkkkkkkkkkkkkkkkkuXkkk26oG%*t>>kkyakk;;kyk7kkxkGkGykkkkkkkkkkkMkkkkkkkkkkkkkkkkkkkkk",
"kkkkkkkkkkkkkkkkkkkkkkkkkkkkkkkkkkphk6k9Gqx1kkkkNSkkkkkSk,kk:k2skGmkkkkkkkkkkkb&kkkkkkkkkkkkkkkkkkkk",
"kkkkkkkkkkkkkkkkkkkkkkkkkkkkkkkkkkk+ukGG&=k<kkkkkkkkkkkkknkkxkGk=X kkkkkkkkkkkkhkkkkkkkkkkkkkkkkkkkk",
"kkkkkkkkkkkkkkkkkkkkkkkkkkkkkkkkkkk0SeG$tpkk6kkkkkkkkkkkGkk:kkvkGCk>kkkkkkkkkkkzakkkkkkkkkkkkkkkkkkk",
"kkkkkkkkkkkkkkkkkkkkkkkkkkkkkkkkkk.;G<AnsVkgkkkkkkkkkkkpdkkxk9kblik$kkkkkkkkkkkkMkkkkkkkkkkkkkkkkkkk",
"kkkkkkkkkkkkkkkkkkkkkkkkkkkkkkkkkZkGGDknuSc6kkkkkkkkkkkGkkhkkGkAiak+kkkkkkkkkkkkgkkkkkkkkkkkkkkkkkkk",
"kkkkkkkkkkkkkkkkkkkkkkkkkkkkkkkkkiOG=qiV>6i>kkkkkkkkkk+tkkjkh;kGpkkskkkkkkkkkkkkwrkkkkkkkkkkkkkkkkkk",
"kkkkkkkkkkkkkkkkkkkkkkkkkkkkkkkk6kG77n:VOk#kkkkkkkkkkkGkkskkqkjx6k; kkkkkkkkkkkkk&kkkkkkkkkkkkkkkkkk",
"kkkkkkkkkkkkkkkkkkkkkkkkkkkkkkkk lGGxX,koykkkkkkkkkkkgbkk3k+tkGkkk$kkkkkkkkkkkkkk3kkkkkkkkkkkkkkkkkk",
"kkkkkkkkkkkkkkkkkkkkkkkkkkkkkkk6kGGGFXdkbyukkkkkkkkkkCkkf;kGk41<kk@kkkkkkkkkkkkkkjkkkkkkkkkkkkkkkkkk",
"kkkkkkkkkkkkkkkkkkkkkkkkkkkkkkkZ%GCahFO4tcOSkkkkkkkk5kkkjkSgk9Zzkbb0kkkkkkkkkkkkkjkkkkkkkkkkkkkkkkkk",
"kkkkkkkkkkkkkkkkkkkkkkkkkkkkkkk<GGvC3 4pkk6i<kkkkkkN,kkOzkGkkGh>kkkpkkkkkkkkkkkkk=kkkkkkkkkkkkkkkkkk",
"kkkkkkkkkkkkkkkkkkkkkkkkkkkkkk4rGG1nyjm%kkkOakkkkkkDkkknkk1koGtkkkkokkkkkkkkkkkkkjkkkkkkkkkkkkkkkkkk",
"kkkkkkkkkkkkkkkkkkkkkkkkkkkkkk ,GC,5 cZ6kkkkO@kkkk.gkkONk1kkGZkkkk+kkkkkkkkkkkkkk=kkkkkkkkkkkkkkkkkk",
"kkkkkkkkkkkkkkkkkkkkkkkkkkkkkkOyGG=l#;%2kkkkkOakkkGkkknkkGkkCfkkkk;kkkkkkkkkkkkkkjkkkkkkkkkkkkkkkkkk",
"kkkkkkkkkkkkkkkkkkkkkkkkkkkkkkk4GG:*OV@Zkkkkkkpiktpkk 8k56kv9;kkkkkkkkkkkkkkkkkkk,kkkkkkkkkkkkkkkkkk",
"kkkkkkkkkkkkkkkkkkkkkkkkkkkkkkkkcGG#s>ykkkkkkk>obGkkk7kkGkkq8kkkkkkkkkkkkkkkkkkkk7kkkkkkkkkkkkkkkkkk",
"kkkkkkkkkkkkkkkkkkkkkkkkkkkkkkkk2CGp*0rkkkkkkkk .akkurkp+kbqokkkkkkkkkkkkkkkkkkkkjkkkkkkkkkkkkkkkkkk",
"kkkkkkkkkkkkkkkkkkkkkkkkkkkkkkkkm#Gpd;bkkkkkkkkktukkDkkGkkxu>kkkkkkkkkkkkkkkkkkkk=kkkkkkkkkkkkkkkkkk",
"kkkkkkkkkkkkkkkkkkkkkkkkkkkkkkkkkNGgCkFkkkkkkkkkkpXmik<,kkGSkkkkkkkkkkkkkkkkkkkkk&kkkkkkkkkkkkkkkkkk",
"kkkkkkkkkkkkkkkkkkkkkkkkkkkkkkkkktyGtVkkkkNkkkkkkkovkkGkkdd4kkkkkkkkNkkkkkkkkkkkkfkkkkkkkkkkkkkkkkkk",
"kkkkkkkkkkkkkkkkkkkkkkkkkkkkkkkkkkSGk.kkkkGkkkkkkk;o0kGkk9rkkkkkkkkkGkkkkkkkkkkkw8kkkkkkkkkkkkkkkkkk",
"kkkkkkkkkkkkkkkkkkkkkkkkkkkkkkkkkkbAhkkkkkGkkkkkkkk2t3wkwx;kkkkkkkkkG2kkkkkkkkkkMkkkkkkkkkkkkkkkkkkk",
"kkkkkkkkkkkkkkkkkkkkkkkkkkkkkkkkkk83MkkkkFGkkkkkkkkkuokkA*kkkkkkkkkkG&kkkkkkkkkkhkkkkkkkkkkkkkkkkkkk",
"kkkkkkkkkkkkkkkkkkkkkkkkkkkkkkkkkkkA=kkkkkGVkkkkkkkkkd.kGbkkkkkkkkkkGZkkkkkkkkk$;kkkkkkkkkkkkkkkkkkk",
"kkkkkkkkkkkkkkkkkkkkkkkkkkkkkkkkkkk5ykkkkkGGkkkkkkkkkkfdnzkkkkkkkkkaGkkkkkkkkkkgkkkkkkkkkkkkkkkkkkkk",
"kkkkkkkkkkkkkkkkkkkkkkkkkkkkkkkkkkkjkkkkkkrGkkkkkkkkkkkdikkkkkkkkkkGDkkkkkkkkk<akkkkkkkkkkkkkkkkkkkk",
"kkkkkkkkkkkkkkkkkkkkkkkkkkkkkkkkkkklkkkkkkkG>kkkkkkkkkN&wukkkkkkkk<Gkkkkkkkkkkxkkkkkkkkkkkkkkkkkkkkk",
"kkkkkkkkkkkkkkkkkkkkkkkkkkkkkkkkkkkakkkkkkkG0kkkkkkkkkCk;ptkkkkkkkFGkkkkkkkkk6wkkkkkkkkkkkkkkkkkkkkk",
"kkkkkkkkkkkkkkkkkkkkkkkkkkkkkkkkkkkdkkkkkkkGkkkkkkkkkknkw@w8kkkkkk Gkkkkkkkkk,kkkkkkkkkkkkkkkkkkkkkk",
"kkkkkkkkkkkkkkkkkkkkkkkkkkkkkkkkkkt4kkkkkkkGkkkkkkkkk$NkgkXS>kkkkkkGkkkkkkkkObkkkkkkkkkkkkkkkkkkkkkk",
"kkkkkkkkkkkkkkkkkkkkkkkkkkkkkkkkkkhkkkkkkkkkkkkkkkkkkGkkgkk9ykkkkkkpkkkkkkk2.kkkkkkkkkkkkkkkkkkkkkkk",
"kkkkkkkkkkkkkkkkkkkkkkkkkkkkkkkkkkykkkkkkkkkkkkkkkkk2gkjzkXkyskkkkkkkkkbkkkhkkkkkkkkkkkkkkkkkkkkkkkk",
"kkkkkkkkkkkkkkkkkkkkkkkkkkkkkkkkkkkkkkkkkkkkkkkkkkkkvkkxkk&k4@#kkkkkkkm5kk*kkkkkkkkkkkkkkkkkkkkkkkkk",
"kkkkkkkkkkkkkkkkkkkkkkkkkkkkkkkkkkkkkkkkkkkkkkkkkkkk7kkgkkfk&koZkkkkkk%kk;0kkkkkkkkkkkkkkkkkkkkkkkkk",
"kkkkkkkkkkkkkkkkkkkkkkkkkkkkkkkkkkkkkkkkk2kkkkkkkkkf8k1kktNkjkiXkkkkkhkkkkkkkkkkkkkkkkkkkkkkkkkkkkkk",
"kkkkkkkkkkkkkkkkkkkkkkkkkkkkkkkkkkkkkkkkk:kkkkkkkkkekk7kk$kkhk@akkkkfkkkkkkkkkkkkkkkkkkkkkkkkkkkkkkk",
"kkkkkkkkkkkkkkkkkkkkkkkkkkkkkkkkkkkkkkkkobkkkkkkkk4#kr+kkjkOkkXhkkk ykkkkkkkkkkkkkkkkkkkkkkkkkkkkkkk",
"kkkkkkkkkkkkkkkkkkkkkkkkkkkkkkkkkkkkkkkk5kkkkkkkkkCkkGkk6Zk%kkkkkkk7kkkkkkkkkkkkkkkkkkkkkkkkkkkkkkkk",
"kkkkkkkkkkkkkkkkkkkkkkkkkkkkkkkkkkkkkkkik kkkkkkkkCkkGkkgkk%kkkkkk8pkkkkkkkkkkkkkkkkkkkkkkkkkkkkkkkk",
"kkkkkkkkkkkkkkkkkkkkkkkkkkkkkkkkkkkkkkkpkskkkkkkkgbkOrkkgkV8kkkkkk9kkkkkkkkkkkkkkkkkkkkkkkkkkkkkkkkk",
"kkkkkkkkkkkkkkkkkkkkkkkkkkkkkkkkkkkkkkkk2NkkkkkkkGkkGkkNXkhkkkkkkk3kkkkkkkkkkkkkkkkkkkkkkkkkkkkkkkkk",
"kkkkkkkkkkkkkkkkkkkkkkkkkkkkkkkkGkkkkkkkukkkkkkk4&kkfkk$kk$kkkkkk$kkkkkkkkkkkkkkkkkkkkkkkkkkkkkkkkkk",
"kkkkkkkkkkkkkkkkkkkkkkkkkkkkkkkFGkkkkkkk+kkkkkkkqkkFSkkfkz kkkkkkqkkkkkkkkkkkkkkkkkkkkkkkkkkkkkkkkkk",
"kkkkkkkkkkkkkkkkkkkkkkkkkkkkkkkGGckkkkkkukkkkkkkDkkjkk>ykdkkkkkkk7kkkkkkkkkkkkkkkkkkkkkkkkkkkkkkkkkk",
"kkkkkkkkkkkkkkkkkkkkkkkkkkkkkkhGGdkkkkkNSkkkkkk=4kkjkk*kk*kkkkkkk%kkkkkkkkkkkkkkkkkkkkkkkkkkkkkkkkkk",
"kkkkkkkkkkkkkkkkkkkkkkkkkkkkkkGGCGkkkkkkkkkkkkkGkka;kk=kk&kkkkkawikkkkkkkkkkkkkkkkkkkkkkkkkkkkkkkkkk",
"kkkkkkkkkkkkkkkkkkkkkkkkkkkkkAGG%Gkkkkkkkkkkkk4&kkjkkkukXckkkkmn$.kkkkkkkkkkkkkkkkkkkkkkkkkkkkkkkkkk",
"kkkkkkkkkkkkkkkkkkkkkkkkkkkk>G3Gnv%kkkkkkkkkkkCkkk&kk%kk=kkkkkkg3Xkkkkkkkkkkkkkkkkkkkkkkkkkkkkkkkkkk",
"kkkkkkkkkkkkkkkkkkkkkkkkkkkkGGe91gGkkkkkkkkkkkCkkpkkkjkk$kkkbS.99@kkkkkkkkkkkkkkkkkkkkkkkkkkkkkkkkkk",
"kkkkkkkkkkkkkkkkkkkkkkkkkkk GGA$B%pskkkkkkkkkd4kk=kkkdkVZkkkkbbdG3kkkkkkkkkkkkkkkkkkkkkkkkkkkkkkkkkk",
"kkkkkkkkkkkkkkkkkkkkkkkkkkkGGAG$Gi$v;kkkkkkkk7kk>skk+kk%kkkkkk0OG,okkkkkkkkkkkkkkkkkkkkkkkkkkkkkkkkk",
"kkkkkkkkkkkkkkkkkkkkkkkkkktGBqCaha9dXkkkkkkkk&kkhkkkhkk$kkkkk<#BvG9mpsfN>kkkkkkkkkkkkkkkkkkkkkkkkkkk",
"kkkkkkkkkkkkkkkkkkkkkkkkkkGGGeD=,Chtswkkkkkk1kkkjkkkskk+kkkk6mX@:BC:kNrm3$fwitkkkkkkkkkkkkkkkkkkkkkk",
"kkkkkkkkkkkkkkkkkkkkkkkkkkGGGj5*gl$12=kkkkkk1kkNokkozkskkkkkk0y&%1GtFkykkF$kckdpftkkkkkkkkkkkkkkkkkk",
"kkkkkkkkkkkkkkkkkkkkkkkkkkGAG5en#Dwyk+7kkkkZ kkjkkkxkkgkkkkkkkF hCnGlgO.xz<ruckkko*+wkkkkkkkkkkkkkkk",
"kkkkkkkkkkkkkkkkkkkkkkkwtkGAG5ij#%&Vfn$3kkk,kkk3kkk*kk%kkkkkktNw v1GqqM,aV+m22ty>>4b+dyikkkkkkkkkkkk",
"kkkkkkkkkkkkkkkkkkbot&h akGGG5GG*@syi06.Gkkhkkrwkk bkF2kkkkkkkwp +*=DGGjokkSjNXk tkkkk2ud$2kkkkkkkkk",
"kkkkkkkkkkkkkkk6p3$48wNckknGG=*MfNSt.a*c#*Akkk3kkk*kk&kkkkkkkkkX@loD=Ge$apykkkNkkkm2mVVkkk8sXkkkkkkk",
"kkkkkkkkkkkkkXi4k>0NsZk+sSrGB,Cs,lMAX46fkkGlak&kkk&kk&kkkkkkkkkpt$$,%MGh%>kkkbFrwm2k4>kbkkmkN9#kkkkk",
"kkkkkkkkkkNvy6%SkkkbN8awiSkGeDBpl0Fdc0.k0Si;8G&kk4Vk<tkkkkkkkkm6.F%&MMGyZk dXwFSkb t;;FFk8Nk4N2Mmkkk",
"kkkkkkkkF=Sk@2k++tkkwZ;2Zs #G,B*othug04Sk9kkk,kvd@kk@kkkkkkkkzSbwis1xhGjr9tNZ0kkkkkkkkzZcm2X;k<km&kk",
"kkkkkkkgmkkkk bckOhwkkkmkkz;GG1qxli6VpkkVnk4VgkkkGGa*kkkkkkkkr4V%sFnvMGy+kkkkk4<kkb2kk< zyk4tS>kS2uk",
"kkkkkk%zkkkk<800840kkkkkkkkkFGDG:O aOOkVoa.k%kkkbSk>Gn&GGBnD9uV<dy@3$BGkG22mFFbb0y2kkkkk0SrkkNy6Vkgk",
"kkkk;#kkkkk>wkzkkNZ4kkk6VSkkkGGCps&$k$gkDk4k5kkkgkk>kkkkkkkkkkkz0bd#vGvbFkkkk4mkkZNkkkkt6kkzrkkF<k*k",
"kkkk*kzFkbkkzkkSNNktag@6kkkkktGB3X4f@fkunkkk%kkk0kkkkkkkkkkkkk.N8uGfD@6nkkkkck>pNkk>owbkkkrNkmw;y mk",
"kkk$kkkb<kk4mNZZZ0bkkkkkmFmkkkGG3%otorakk<knkkkkkkkkkkkkkkkkkkS@xflovf%k0XXckkzkk2oNkkk u0k6ukV<<Xkk",
"kkk=k6kk0NSbkVmkkkkk<6kkkkkkkkkGGxjMrr>kykkAkkkkkkkkkkkkkkkkkkkwoZ+$3orkkkkkk4 Zkkkkk.0kkkbkk4kbukkk",
"kkkhkk8Nkkb8>zckkckkbFV<ck>kkkkkGBGOj%r;#k2+kkkkkkkkkkkkkkkyw<wd&=pfy%kkFtXrkkkkou.zk;kkk>w02k.wkkkk",
"kkkXscihna6kwkbzkkk0iVz0y8kckVykkGC7oZGky8,kkkkkkkkkkkkkkwZkkFuh=jll3kkkkkkkk<2kkkkkkkkVw;k ;hckkkkk",
"kkkkklkkk>wr6kkk>opkk.0k2kFkO;ZbkkqGxdM8Fpkkkkkkkkkkkkkkkkk FVkNn%F5kkkkkk2tcckkkk2kVtiukSwyokkkkkkk",
"kkkkkkXOkkkkkkkyVkkkkVSZZ kFNF48Nkk8Gl5FiakkkkkkkkkkkkkkkkkV0 dpka&kkkkkkkkkkkkwyF4kkzzkruykkkkkkkkk",
"kkkkkkkzsykkkNpkkm4wF2w2N8<wZ2Fbk6k009G&xcickkkkkkkkkkkkkkkkkkkkhNkkkNZNrVkkk4rckkkkkkNaykkkkkkkkkkk",
"kkkkkkkkk;g3Skkkkk VF2mrkS64kZkktS@zkkOGftrqkkkkkkkk6m2S2b@#5GqskwVk8bkkkkkkkmkkkkko$aZkkkkkkkkkkkkk",
"kkkkkkkkkkkk6s@okkkkkkkkfF;Ny04ya8kkkkkk=G+f<kkkkkkyj&j:xfa6kkk;6zkkkkkkkkkkkkmvXyuzkkkkkkkkkkkkkkkk",
"kkkkkkkkkkkkkkk;fasikkkkkkzkko$Nkkkkkkkkkc&wb kkkkkkkkkkkk<kkkk;kkkkkkkkkk #afNkkkkkkkkkkkkkkkkkkkkk",
"kkkkkkkkkkkkkkkkkkkmud$# rs+@kkkkkkkkkkkkkkco15;kkkkkkkkkkkkkkkkkkkkkt%a@pkkkkkkkkkkkkkkkkkkkkkkkkkk",
"kkkkkkkkkkkkkkkkkkkkkkkkkkkkkkkkkkkkkkkkkkkkkkkaxg$* o;mkkkkyojuf+=hyzkkkkkkkkkkkkkkkkkkkkkkkkkkkkkk",
"kkkkkkkkkkkkkkkkkkkkkkkkkkkkkkkkkkkkkkkkkkkkkkkkkkkkk44d#ddN6kkkkkkkkkkkkkkkkkkkkkkkkkkkkkkkkkkkkkkk",
"kkkkkkkkkkkkkkkkkkkkkkkkkkkkkkkkkkkkkkkkkkkkkkkkkkkkkkkkkkkkkkkkkkkkkkkkkkkkkkkkkkkkkkkkkkkkkkkkkkkk",
"kkkkkkkkkkkkkkkkkkkkkkkkkkkkkkkkkkkkkkkkkkkkkkkkkkkkkkkkkkkkkkkkkkkkkkkkkkkkkkkkkkkkkkkkkkkkkkkkkkkk",
"kkkkkkkkkkkkkkkkkkkkkkkkkkkkkkkkkkkkkkkkkkkkkkkkkkkkkkkkkkkkkkkkkkkkkkkkkkkkkkkkkkkkkkkkkkkkkkkkkkkk",
"kkkkkkkkkkkkkkkkkkkkkkkkkkkkkkkkkkkkkkkkkkkkkkkkkkkkkkkkkkkkkkkkkkkkkkkkkkkkkkkkkkkkkkkkkkkkkkkkkkkk",
"kkkkkkkkkkkkkkkkkkkkkkkkkkkkkkkkkkkkkkkkkkkkkkkkkkkkkkkkkkkkkkkkkkkkkkkkkkkkkkkkkkkkkkkkkkkkkkkkkkkk",
"kkkkkkkkkkkkkkkkkkkkkkkkkkkkkkkkkkkkkkkkkkkkkkkkkkkkkkkkkkkkkkkkkkkkkkkkkkkkkkkkkkkkkkkkkkkkkkkkkkkk",
"kkkkkkkkkkkkkkkkkkkkkkkkkkkkkkkkkkkkkkkkkkkkkkkkkkkkkkkkkkkkkkkkkkkkkkkkkkkkkkkkkkkkkkkkkkkkkkkkkkkk",
"kkkkkkkkkkkkkkkkkkkkkkkkkkkkkkkkkkkkkkkkkkkkkkkkkkkkkkkkkkkkkkkkkkkkkkkkkkkkkkkkkkkkk-kkkkkkkkkkkkkk",
"kkkkkkkkkkkkkkkkkkkkkkkkkkkkkkkkkkkkkkkkkkkkkkkkkkkkkkkkkkkkkkkkkkkkkkkkkkkkkkkkkkk--kkkkkkkkkkkkkkk",
"kkkkkkkkkkkkkkkkkkkkkkkkkkkkkkkkkkkkkkkkkkkkkkkkkkkkkkkkkkkkkkkkkkkkkkkkkkkkkk-k-----kkkkkkkkkkkkkkk",
"kkkkkkkkkkkkkkkkkkkkkkkkkkkkkkkkkkkkkkkkkkkkkkkkkkkkkkkkkkkkkkkkkkkkkkkkkkkkkk----k--kkkkkkkkkkkkkkk",
"kkkkkkkkkkkkkkkkkkkkkkkkkkkkkkkkkkkkkkkkkkkkkkkkkkkkkkkkkkkkkkkkkkkkkkkkkkkkkk;--kk-kkkkkkkkkkkkkkkk",
"kkkkkkkkkkkkkkkkkkkkkkkkkkkkkkkkkkkkkkkkkkkkkkkkkkkkkkkkkkkkkkkkkkkkkkkkkkkkkkkkkkk-kkkkkkkkkkkkkkkk",
"kkkkkkkkkkkkkkkkkkkkkkkkkkkkkkkkkkkkkkkkkkkkkkkkkkkkkkkkkkkkkkkkkkkkkkkkkkkkkkkkkkk-kkkkkkkkkkkkkkkk"
};
