/* XPM */
static char *noname[] = {
/* width height ncolors chars_per_pixel */
"50 71 63 2",
/* colors */
"`` c #666664",
"`a c #F2F2F4",
"`b c #5E5E5C",
"`c c #EAEAEC",
"`d c #565654",
"`e c #E2E2E4",
"`f c #4E4E4C",
"`g c #DADADC",
"`h c #464644",
"`i c #D2D2D4",
"`j c #3E3E3C",
"`k c #CACACC",
"`l c #363634",
"`m c #C2C2C4",
"`n c #2E2E2C",
"`o c #BABABC",
"`p c #262624",
"`q c #B2B2B4",
"`r c #1E1E1C",
"`s c #AAAAAC",
"`t c #161614",
"`u c #A2A2A4",
"`v c #0E0E0C",
"`w c #9A9A9C",
"`x c #060604",
"`y c #929294",
"`z c #8A8A8C",
"a` c #828284",
"aa c #7A7A7C",
"ab c #727274",
"ac c #6A6A6C",
"ad c #626264",
"ae c #5A5A5C",
"af c #525254",
"ag c #4A4A4C",
"ah c #424244",
"ai c #3A3A3C",
"aj c #323234",
"ak c #2A2A2C",
"al c #FEFEFC",
"am c #222224",
"an c #F6F6F4",
"ao c #1A1A1C",
"ap c #EEEEEC",
"aq c #121214",
"ar c #E6E6E4",
"as c #0A0A0C",
"at c #DEDEDC",
"au c #D6D6D4",
"av c #CECECC",
"aw c #C6C6C4",
"ax c #BEBEBC",
"ay c #B6B6B4",
"az c #AEAEAC",
"b` c #A6A6A4",
"ba c #9E9E9C",
"bb c #969694",
"bc c #8E8E8C",
"bd c #868684",
"be c #7E7E7C",
"bf c #767674",
"bg c #6E6E6C",
"bh c #FAFAFC",
/* pixels */
"alalalalalalalalalalalalalalalalalalalalalalalalalalalalalalalalalalalalalalalalalalalalalalalalalal",
"alalalalalalalalalalalalalalalalalalalalalalalalalalalalalalalalalalalalalalalalalalalalalalalalalal",
"alalbhbhalalbhalalbhalalalalalalalalalalalalalalalalalalalalalalalalalalalalalalalalalalalalalalalal",
"alalalalalalalalalalalalalalalalalalalalalalalalalalalalalalalalalalalalalalalalalalalalalalalalalal",
"alalalbhbhalalbhalalalalalalalalalalalalalalalalalal`o`ya``s`wbhalalalalalalalalalalalalalalalalalal",
"bhalalalalalbhalalalalalalalalalalalalalalalalalal`a`malalalap`obb`malalalalal`cax`galalalalalalalal",
"alalalalalalalalalalalalalalalalalalalalalalalalalbcalbhalalalalalax`ialalal`gauav`u`ealalalalalalal",
"alalalalalalalbhalalalalalalalalalalalalalalalalawar`ialalalalalalalaxapalalbaacat`i`oalalalalalalal",
"alalbhalalalalbhalalalalalalalalalalalalalalalalazal`sbhalalalalalalalayalbh`eba`iapavalalalalalalal",
"albhalbhalalalalalalalalalalalalalalalalalalalal`oatalb``aalalalalalal`oanazazanbhayalalalalalalalal",
"alalalalalalalalalalalalalalalalalalalalalalanawal`salalbaalalalalalalalazaa`cav`oalalalalalalalalal",
"alalalalalalalalalalalalalalalalalalalalalapawalalaranal`i`qalalalalalalbeayazbcbcalalalalalalalalal",
"alalalalalalalalalalalalalalalalalalalalal`g`oapalalalalal`yalalalalal`gbbabbhapalalalalalalalalalal",
"alalalalalalalalalalalalalalalalalalalalalal`sanalalalalalbdalalalalalbc`obbalalalalalalalalalalalal",
"alalalalalalalalalalalalalalalalalalalalalapaaanalalalalal`qatan`ealax`sbbazalalalalalalalalalalalal",
"alalalalalalalalalalalalalalalalalalalalal`kab`oalalalalalau`uaw`salbb`ua`bcalalalalalalalalalalalal",
"alalalalalalalalalalalalalalalalalalalalalayalalalalalalan`ea`axax`oba`oazaxaralalalalalalalalalalal",
"alalalalalalalalalalapbhalalalalalalalalalaybhalalalalan`s`sazav`gaz`qbdalalazalalalalalalalalalalal",
"alalalalalalalalalalax`u`aalalalalalalalalaraw`o`c`c`aaxaw`g`kav`sayb`ayalal`m`calalalalalalalalalal",
"alalalalalalalalalalal`c`sbhalalalalalalalalalal`c`jb`albh`yavapazay`w`ialalalay`aalalalalalalalalal",
"alalalalalalalalalalalalar`qbhalalalalalalalalalal`v`sav`abcaubbaw`u`salalalalalayapalalalalalalalal",
"alalalalalalalalalalalalal`i`kalalalalalalalalalal`l`way`uau`cazazazbc`q`ialalalal`galalalalalalalal",
"alalalalalalalalalalalalalalaw`galalalalalalan`i`m`hbe`q`oap`w`m`uax`ialax`salalalalalalalalalalalal",
"alalalalalalalalalalalalalalal`oatalalalbh`kbaadagad```oav`i`mb`ba`ualalal`i`oalalalalalalalalalalal",
"alalalalalalalalalalalalalalalanaz`aalanaz`nag`ian`w`k`iar`waw`o`o`ialalalalau`ialalalalalalalalalal",
"alalalalalalalalalalalalalalalalapba`c`zakac`aalau`calapaz`gbabb`qbhalalalalal`ualalalalalalalalalal",
"alalalalalalalalalalalalalalalalal`ibdambd`c`aalalalal`a`yax`kb``u`aalalalalal`e`kalalalalalalalalal",
"alalalalalalalalalalalalalalalalarbcajbf`q`kalalalalal`w`c`sbc`k`e`kalalalalalal`salalalalalalalalal",
"alalalalalalalalalalalalalalalalawaoaibbaw`kalalalalapbaaw`gb`baalaualalalalalal`salalalalalalalalal",
"alalalalalalalalalalalalalalal`cbgaq`y`q`o`ialalalal`wbh`sba`g`oalaralalalalalal`ualalalalalalalalal",
"alalalalalalalbhbhalalalalalalar`v`lbfazap`qapalal`gaz`k`e`y`u`galbhalalalalalalb`alalalalalalalalal",
"alalalalalalalalalalalalalalalbb`x`l`qayalap`u`aala`al`u`q`ebebhalbhalalalalalalb`alalalalalalalalal",
"alalalalalalalalalalalalalalal`gao`hayazalalapb``kax`iaubeaybaalalalalalalalalalbaalalalalalalalalal",
"alalalalalalalalalalalalalalalalbdahba`galalalatbcalbb`maxbeatalalalalalalalalalbaalalalalalalalalal",
"alalalalalalalalalalalalalalalalau`jb``calbhalal`k`oaw`zapbfalalalalanalalalalal`salalalalalalalalal",
"alalalalalalalalalalalalalalalal`aad`malalbbalalal`o`kbb`y`ialalalal`walalalalal`qalalalalalalalalal",
"alalalalalalalalalalalalalalalalalbebaalapbfalalalbhbb`c`dalalalalalagalalalalap`oalalalalalalalalal",
"alalalalalalalalalalalalalalalalalbb`ialalajalalalalap`w`walalalalaxaaalalalal`qalalalalalalalalalal",
"alalalalalalalalalalalalalalalalalazalalalbf`aalalalalbaayanalalalbg`ealalalbh`qalalalalalalalalalal",
"alalalalalalalalalalalalalalalalalaxalalalbebhalalal`c`s`saxalalal``alalalalaybhalalalalalalalalalal",
"alalalalalalalalalalalalalalalalal`oalalal`ealalalalbb`eaw`uawalalawalbhalataualalalalalalalalalalal",
"alalalalalalalalalalalalalalalalalanalalalalalalalal`wb`alayb``malalal`sal`oalalalalalalalalalalalal",
"alalalalalalalalalalalalalalalalalalalal`galalalal`q`g`wauaraz`yalalaxapalbhalalalalalalalalalalalal",
"alalalalbhalalalalbhalalalalbhbhalalbhal`salalalal`waw`kay`kapb`al`k`galalalbhbhbhbhbhalalalalalalal",
"albhbhalbhalalalalbhalalalalalbhalalal`i`malalbhar`sbdal`q`oalalal`walalbhalalalalalbhalalalalalalal",
"bhalalalalalalalalalalalbhalalal`ialalanavalalalbcalbbat`g`qalbhar`qalalalalalalalalalbhbhbhbhbhbhal",
"alalalalbhbhbhalalbhbhalalalal`mbealbhalawalalalbd`iat`oaratalal`yalbhalalalalalalalalalalalalalbhal",
"alalbhalalalalbhalalalalbhbhal`najalal`aarbhal`s`eazalazazalal`cb`alalalbhbhbhbhbhalalalalalalalalal",
"bhalbhalalalalbhalalalalalalbbas`naralalalalal`yalazarauayalalbaa`albhalalalalalbhalalalalalalalbhal",
"alalalalalalalalalalbhalal`aaq`r`hbdalalalalaraz`m`aazan`mal`ebd`jalalalalalalalalbhbhbhbhbhbhalalal",
"alalbhbhbhalalbhbhalalalalaa`vah`d`d`calbhalbaal`qal`o`obhalbhbd`ray`i`gbhalalalalalalalalalbhalbhal",
"bhalalalalbhalalalalbhalal`v`t`lah```ualalalbaan`q`cavaxalalatbeai`hauaw`waz`kav`ialalalalalalalalal",
"bhalalalalbhalalalalal`aap`x`tahafbb`ybdalavat`sbh`sal`qalal`c`qafam`faab`axauav`i`s`oaualalbhalbhal",
"alalalalalalalanaxax`s`q`gasao`pbebabb`ubd`walb`al`oavapalalbhaybeagaq`n`sauaw`i`iapat`kayauapalalal",
"bhbhbhalalav`kazarauayay`sad`r`facae`mazaubgb``sbh`m`oalalalalavbbaeai`j`oav`g`oatau`c`g`a`eb`azanal",
"alalalat`o`e`mavayavauarawayaq`lbf`yb``e`zap`yawbd`qayalalalap`ibcad`j`jbb`i`gapal`cal`iatau`gar`o`c",
"alal`eavalbh`g`g`g`ialanaral`b`vabbd`u`ibd`e`ual`o`ea`bbbdbcb`arb````la``uap`i`cavapalarav`catav`c`q",
"al`eavar`aanar`gavatayavaranatasae`wbcawax`iaval`calalalalalalaybcaf`hbb`garan`g`c`g`i`eatauatau`oap",
"al`s`a`carau`capanal`gapanbhal`s`ragbc`e`k`walalalalalalal`cap`oa`bfbgarauauan`g`i`e`c`c`a`g`cauatal",
"al`e`qay`s`i`eanarau`matau`cauau`s`ta`bd`sawalbhalalbhalapatav`s`f`baxalanat`aananan`eawat`max`aalal",
"bhalbhawavbh`aavar`e`gawawau`k`i`c`i`h`d`y`ealalbhalalalalapauaxb`avan`carbhan`gau`aan`iax`ebhalalal",
"alalalalan`uawawal`g`e`e`oatavat`q`ganbb`babbhalalap`ubbb`bb`z`u`gaparbhbhalanaw`iavax`cbhalalalbhal",
"albhalbhalalbhanax`oaw`m`i`m`m`kbhalalalap`obaavalbhan`aan`aalalalalapaxawaw`oapanbhalalalalalalbhal",
"alalalalalalalalalalananbhanbhalalalalalalalan`gb``qawavaxau`m`o`o`s`eananalalalalalalalalalalalalal",
"alalalalalalbhbhbhalalalalalalalalbhalbhalalalalalalbhbhanbhalalalalalalalalalalalalalalalbhalalalal",
"albhalalalbhalalalalalalalalbhbhbhalalalbhalbhalalalalalalalbhalalalalalalalalalbhalalalbhalalalbhal",
"alalbhbhalalalalalbhalbhalalalalalalalalbhalalbhalalalalbhalalalbhalalbhbhbhalalbhbhbhalalbhalalbhal",
"albhalalalalalalbhalbhalbhalalalalbhalalalalbhalalalalalalalalbhalbhalalalalbhalalal`aalalalbhalalal",
"alalalalbhbhbhalalalalalalalalbhalbhalalalalalbhbhbhbhalalbhalalalbhalalalalalap`qbb`salalalalalbhal",
"alalalbhalalalalalalalalbhbhbhalalalbhalbhalalalalalalalbhalalalalalalalalalalae`uav`calalalbhalalal",
"bhbhalalalalalbhalbhalalalalalalalalbhalalbhalalalalbhalalalbhalalbhbhbhalalalalalaralalalalbhalbhal"
};
