/* XPM */
static char * lilypond_48x48_xpm[] = {
"48 48 202 2",
"  	c None",
". 	c #000000",
"+ 	c #F0F0F0",
"@ 	c #BCBCBC",
"# 	c #737373",
"$ 	c #6B6B6B",
"% 	c #707070",
"& 	c #A5A5A5",
"* 	c #EFEFEF",
"= 	c #1B1B1B",
"- 	c #222222",
"; 	c #333333",
"> 	c #111111",
", 	c #313131",
"' 	c #C1C1C1",
") 	c #E9E9E9",
"! 	c #747474",
"~ 	c #3C3C3C",
"{ 	c #9B9B9B",
"] 	c #6E6E6E",
"^ 	c #ABABAB",
"/ 	c #ECECEC",
"( 	c #B4B4B4",
"_ 	c #383838",
": 	c #131313",
"< 	c #DBDBDB",
"[ 	c #8A8A8A",
"} 	c #040404",
"| 	c #DCDCDC",
"1 	c #030303",
"2 	c #020202",
"3 	c #424242",
"4 	c #E8E8E8",
"5 	c #E7E7E7",
"6 	c #1E1E1E",
"7 	c #6D6D6D",
"8 	c #5B5B5B",
"9 	c #D1D1D1",
"0 	c #787878",
"a 	c #0A0A0A",
"b 	c #434343",
"c 	c #8E8E8E",
"d 	c #050505",
"e 	c #3F3F3F",
"f 	c #878787",
"g 	c #010101",
"h 	c #3E3E3E",
"i 	c #A0A0A0",
"j 	c #080808",
"k 	c #E3E3E3",
"l 	c #4F4F4F",
"m 	c #292929",
"n 	c #494949",
"o 	c #8D8D8D",
"p 	c #484848",
"q 	c #7D7D7D",
"r 	c #525252",
"s 	c #606060",
"t 	c #101010",
"u 	c #8C8C8C",
"v 	c #777777",
"w 	c #181818",
"x 	c #EDEDED",
"y 	c #0F0F0F",
"z 	c #DFDFDF",
"A 	c #0B0B0B",
"B 	c #C4C4C4",
"C 	c #C9C9C9",
"D 	c #CFCFCF",
"E 	c #545454",
"F 	c #838383",
"G 	c #A1A1A1",
"H 	c #6F6F6F",
"I 	c #070707",
"J 	c #121212",
"K 	c #939393",
"L 	c #141414",
"M 	c #D2D2D2",
"N 	c #EEEEEE",
"O 	c #3D3D3D",
"P 	c #171717",
"Q 	c #828282",
"R 	c #0D0D0D",
"S 	c #D3D3D3",
"T 	c #B6B6B6",
"U 	c #090909",
"V 	c #2C2C2C",
"W 	c #C6C6C6",
"X 	c #464646",
"Y 	c #A9A9A9",
"Z 	c #303030",
"` 	c #212121",
" .	c #9D9D9D",
"..	c #4C4C4C",
"+.	c #4B4B4B",
"@.	c #151515",
"#.	c #989898",
"$.	c #DEDEDE",
"%.	c #636363",
"&.	c #767676",
"*.	c #E1E1E1",
"=.	c #646464",
"-.	c #282828",
";.	c #5D5D5D",
">.	c #979797",
",.	c #4E4E4E",
"'.	c #6C6C6C",
").	c #0C0C0C",
"!.	c #D5D5D5",
"~.	c #E5E5E5",
"{.	c #2B2B2B",
"].	c #191919",
"^.	c #7E7E7E",
"/.	c #363636",
"(.	c #8F8F8F",
"_.	c #1F1F1F",
":.	c #656565",
"<.	c #727272",
"[.	c #252525",
"}.	c #848484",
"|.	c #C0C0C0",
"1.	c #909090",
"2.	c #BEBEBE",
"3.	c #161616",
"4.	c #4D4D4D",
"5.	c #5A5A5A",
"6.	c #262626",
"7.	c #BDBDBD",
"8.	c #4A4A4A",
"9.	c #AAAAAA",
"0.	c #B8B8B8",
"a.	c #C7C7C7",
"b.	c #B2B2B2",
"c.	c #EBEBEB",
"d.	c #959595",
"e.	c #555555",
"f.	c #C2C2C2",
"g.	c #343434",
"h.	c #AEAEAE",
"i.	c #696969",
"j.	c #DDDDDD",
"k.	c #717171",
"l.	c #1A1A1A",
"m.	c #454545",
"n.	c #666666",
"o.	c #7A7A7A",
"p.	c #0E0E0E",
"q.	c #DADADA",
"r.	c #242424",
"s.	c #595959",
"t.	c #5F5F5F",
"u.	c #404040",
"v.	c #393939",
"w.	c #444444",
"x.	c #8B8B8B",
"y.	c #C8C8C8",
"z.	c #626262",
"A.	c #E2E2E2",
"B.	c #B0B0B0",
"C.	c #1D1D1D",
"D.	c #ADADAD",
"E.	c #2E2E2E",
"F.	c #565656",
"G.	c #B7B7B7",
"H.	c #202020",
"I.	c #EAEAEA",
"J.	c #888888",
"K.	c #999999",
"L.	c #5C5C5C",
"M.	c #CECECE",
"N.	c #797979",
"O.	c #D6D6D6",
"P.	c #A2A2A2",
"Q.	c #858585",
"R.	c #D4D4D4",
"S.	c #585858",
"T.	c #272727",
"U.	c #2A2A2A",
"V.	c #E0E0E0",
"W.	c #414141",
"X.	c #868686",
"Y.	c #757575",
"Z.	c #E4E4E4",
"`.	c #3B3B3B",
" +	c #232323",
".+	c #686868",
"++	c #2F2F2F",
"@+	c #A3A3A3",
"#+	c #E6E6E6",
"$+	c #060606",
"%+	c #949494",
"&+	c #1C1C1C",
"*+	c #818181",
"=+	c #A7A7A7",
"-+	c #616161",
";+	c #323232",
">+	c #9F9F9F",
",+	c #535353",
"'+	c #929292",
")+	c #5E5E5E",
"!+	c #575757",
"~+	c #B3B3B3",
"                                                                                                ",
"                                                + + + + + +                                     ",
"                                              + @ # $ % & + +   + + + + +                       ",
"                                            + * = - ; > . , ' + ) ! ~ { +                       ",
"                                            + ] . ^ + / ( _ : < [ . . } < +                     ",
"                                          + | 1 2 3 4 + + 5 6 7 8 . . . 9 +                     ",
"                                        + + 0 . . a b * + + c d . . . e +                       ",
"                                        + f g h 2 0 g i + + < . . . j k +                       ",
"                                        + l . ! 1 ( m n + + o . . p q +                         ",
"                                        + r . s t 4 : > u v w . a x + +                         ",
"                          + + +         + e . g y z A . . . . . . B +                           ",
"                        + C 0 D +       ) d E F G H 1 . . . . I J 0 +                           ",
"                        + K . L M +     N O . P e } . . . . . l Q R S +                         ",
"                        + + T U V k +   + * W X . . d . . . . Y ) Z ` D +                       ",
"                            +  .g ..N + + + S +.. . . . . . . @.#.$., %.+                       ",
"                            + + &.. ! + *.=.d . . . . . . . -.;.. >.N x +                       ",
"                              + N ,.g v 6 . . . . . . . . . '.+ ] ).!.+                         ",
"                                + ~.{.. . . ].; ^./.. . . . (.+ ) _.:.+                         ",
"                                + | > . . . <.+ / [.. . . . 7 + + }.L N                         ",
"                                + &.. . . . |.+ c . . . . . 1.+ + 2.. !.+                       ",
"                                * 3.. . . . 4.*.: . . . 2 g ] + + < . ' +                       ",
"                              + D . . . . 5.. 6.. . . . 3 d 7.+   z . 7.+                       ",
"                              + * 8.. . = ~.... . . . . 9.k + +   z . 0.+                       ",
"                                + a.g . {.-.b.V . . . = c.d.e.+ + f.. D +                       ",
"                                  + g.. E . h.9 @.. . ^.+ i.g j.+ k.l.*                         ",
"                                  + ] 1 i . i.+ T g . S + [.L / 5 = 0 +                         ",
"                                  + =.m.+ 3.e.+ 7.. . p / . n.+ o.p.q.+                         ",
"                                  + r.o.+ s.T + t.. . . '.u.v.w.I x.+                           ",
"                                  + y.4 9.z.+ A.A . . . 2 B.j C.n N +                           ",
"                                + + + x -.V + c . . . } } l.u.x + +                             ",
"                                + D.q T . ~ + E.. . . F.( . G.+                                 ",
"                              + 5 H.).I.w J.@ . . . . { 3 6 * +                                 ",
"                              + ^.. . K.L.M.t.. . . 1 N.. p +                                   ",
"                            + O.R . . /.+ ~.).. . . v.p.. ].9 *.+ + + +                         ",
"                        + + + % . . . . P.#.. . . . k.} . . . . 3.+.Q.D + + +                   ",
"                  + + + R.c S.t . . . . ).T.. . . . a.U.. . . . . . . g E.f D +                 ",
"                + N & W.2 . . . . . . . . . . . . 6 + X.. . . . . . . . . A Y.D +               ",
"              + | `.. . . . . . . . . . . . . . .  +.+w . . . . . . . . . . &+G.+               ",
"              ) ++. p.. . . . . . . . . . . y . R `.`.P . . . . . . . . . . . . @+              ",
"              @+. . . . . . . . L . . . . . v h.* #+F.).. . . . . . . . . . $+%++               ",
"              k /.. . . . . . . . . . . . . T + * | m . . . J U . . . . . . &+G.+               ",
"              + x *+J . . . . . . . . > . . e W p.. . . . g j U H.. . . m 1.4 +                 ",
"                + + #+=+-+` 2 . g ;+>+x i U.. R . . . $+. d 2 . [.,+(.y.* + +                   ",
"                    + + + + ) V.5 + + + + + W '+<.)+!+:.o.>.~+V.+ + + +                         ",
"                                            + + + + + + + + + +                                 ",
"                                                                                                ",
"                                                                                                ",
"                                                                                                "};
