/* XPM */
static char * lilypond_32x32_xpm[] = {
"32 32 158 2",
"  	c None",
". 	c #000000",
"+ 	c #F0F0F0",
"@ 	c #B5B5B5",
"# 	c #949494",
"$ 	c #999999",
"% 	c #E5E5E5",
"& 	c #D6D6D6",
"* 	c #1B1B1B",
"= 	c #727272",
"- 	c #4E4E4E",
"; 	c #1E1E1E",
"> 	c #A8A8A8",
", 	c #D4D4D4",
"' 	c #414141",
") 	c #535353",
"! 	c #EDEDED",
"~ 	c #575757",
"{ 	c #0E0E0E",
"] 	c #CECECE",
"^ 	c #C9C9C9",
"/ 	c #232323",
"( 	c #8A8A8A",
"_ 	c #D0D0D0",
": 	c #B6B6B6",
"< 	c #0D0D0D",
"[ 	c #111111",
"} 	c #262626",
"| 	c #DDDDDD",
"1 	c #6D6D6D",
"2 	c #020202",
"3 	c #4D4D4D",
"4 	c #353535",
"5 	c #505050",
"6 	c #272727",
"7 	c #5E5E5E",
"8 	c #8B8B8B",
"9 	c #717171",
"0 	c #313131",
"a 	c #C0C0C0",
"b 	c #323232",
"c 	c #2B2B2B",
"d 	c #4C4C4C",
"e 	c #595959",
"f 	c #2D2D2D",
"g 	c #0B0B0B",
"h 	c #050505",
"i 	c #A3A3A3",
"j 	c #D9D9D9",
"k 	c #EBEBEB",
"l 	c #161616",
"m 	c #5B5B5B",
"n 	c #898989",
"o 	c #A7A7A7",
"p 	c #EFEFEF",
"q 	c #444444",
"r 	c #E2E2E2",
"s 	c #EEEEEE",
"t 	c #656565",
"u 	c #202020",
"v 	c #010101",
"w 	c #060606",
"x 	c #A9A9A9",
"y 	c #DEDEDE",
"z 	c #ECECEC",
"A 	c #4A4A4A",
"B 	c #7D7D7D",
"C 	c #101010",
"D 	c #9C9C9C",
"E 	c #555555",
"F 	c #7B7B7B",
"G 	c #BBBBBB",
"H 	c #2F2F2F",
"I 	c #606060",
"J 	c #989898",
"K 	c #CACACA",
"L 	c #141414",
"M 	c #222222",
"N 	c #D5D5D5",
"O 	c #070707",
"P 	c #E7E7E7",
"Q 	c #A1A1A1",
"R 	c #9A9A9A",
"S 	c #636363",
"T 	c #9E9E9E",
"U 	c #181818",
"V 	c #D2D2D2",
"W 	c #212121",
"X 	c #8C8C8C",
"Y 	c #848484",
"Z 	c #484848",
"` 	c #6A6A6A",
" .	c #D1D1D1",
"..	c #919191",
"+.	c #7C7C7C",
"@.	c #BABABA",
"#.	c #1F1F1F",
"$.	c #7F7F7F",
"%.	c #474747",
"&.	c #4F4F4F",
"*.	c #C7C7C7",
"=.	c #878787",
"-.	c #868686",
";.	c #2E2E2E",
">.	c #191919",
",.	c #E1E1E1",
"'.	c #282828",
").	c #B3B3B3",
"!.	c #3D3D3D",
"~.	c #B8B8B8",
"{.	c #464646",
"].	c #0A0A0A",
"^.	c #9D9D9D",
"/.	c #383838",
"(.	c #080808",
"_.	c #777777",
":.	c #292929",
"<.	c #6E6E6E",
"[.	c #2A2A2A",
"}.	c #B7B7B7",
"|.	c #A5A5A5",
"1.	c #8D8D8D",
"2.	c #858585",
"3.	c #5F5F5F",
"4.	c #8F8F8F",
"5.	c #242424",
"6.	c #CDCDCD",
"7.	c #7A7A7A",
"8.	c #C2C2C2",
"9.	c #838383",
"0.	c #B0B0B0",
"a.	c #929292",
"b.	c #A0A0A0",
"c.	c #C4C4C4",
"d.	c #1A1A1A",
"e.	c #747474",
"f.	c #131313",
"g.	c #CFCFCF",
"h.	c #3C3C3C",
"i.	c #686868",
"j.	c #DBDBDB",
"k.	c #040404",
"l.	c #343434",
"m.	c #090909",
"n.	c #6C6C6C",
"o.	c #545454",
"p.	c #030303",
"q.	c #C3C3C3",
"r.	c #565656",
"s.	c #2C2C2C",
"t.	c #969696",
"u.	c #C1C1C1",
"v.	c #525252",
"w.	c #666666",
"x.	c #5D5D5D",
"y.	c #121212",
"z.	c #303030",
"A.	c #E4E4E4",
"                                  + +                           ",
"                              + @ # $ % +   + + +               ",
"                            + & * = - ; > , ' ) !               ",
"                            + ~ { ] + ^ / ( . . _               ",
"                          + : < [ } | + 1 2 . 3 +               ",
"                          + 4 5 6 7 8 + 9 . 0 a +               ",
"                          + b c d e f - g h % +                 ",
"                + i j +   k l m n 0 . . . g o +                 ",
"                p q 0 r + s t u ; v . . w x 0 y +               ",
"                + z A ) s + p B . v . . C D ( E +               ",
"                  + y c F G H . . . . . I b J ! +               ",
"                    + K L w . M 5 . . . o N u y                 ",
"                    + K O . [ P Q . . . R + S +                 ",
"                    + 1 . . U V W . . v T + X Y +               ",
"                    + Z . . 7 [ . . O `  .  ..+.+               ",
"                    + @.  #.$.%.. . &.*.> + =.-.+               ",
"                      + ;.' >.,.'.. ).X %.+ !.+                 ",
"                      + {.: ]., =.. ^.) -.: /.+                 ",
"                      + 5 % $.+ H . (._.:.* @.+                 ",
"                      + + B <.G . . 2 [.e }.+                   ",
"                  + + |.1.!.2.3.. . 4.5.6 +                     ",
"                  + % W [.7.8.g . v 3.[.+                       ",
"                  + 9.. . 0.a.. . 0 (.g 1.b  .+ +               ",
"            + + c.X d.. . u ;.. . e.f.. . . v f +.g.+           ",
"          + o h.v . . . . . . . . : %.. . . . . . h i.j.        ",
"        + 1.k.k.. . . . . . . O f.6 ].. . . . . . . . u.        ",
"        + l.. . . . . m.. . L K + n.h . O . . . . . o.%         ",
"        + ^ ' . . . . . k.p.< q.r.c . v g C . . s.t.p +         ",
"          + + u.2.v.{.w.8.q.x.#.v . p.y.z.3.4.a p +             ",
"                + + + + + + + + A.g.,.+ + + +                   ",
"                                                                ",
"                                                                "};
