/* XPM */
static char * lilypond_16x16_xpm[] = {
"16 16 77 1",
" 	c None",
".	c #000000",
"+	c #F0F0F0",
"@	c #A4A4A4",
"#	c #B7B7B7",
"$	c #9C9C9C",
"%	c #565656",
"&	c #717171",
"*	c #858585",
"=	c #252525",
"-	c #DCDCDC",
";	c #4F4F4F",
">	c #2F2F2F",
",	c #BFBFBF",
"'	c #383838",
")	c #4A4A4A",
"!	c #B8B8B8",
"~	c #DADADA",
"{	c #EDEDED",
"]	c #333333",
"^	c #585858",
"/	c #1F1F1F",
"(	c #070707",
"_	c #C8C8C8",
":	c #9A9A9A",
"<	c #5F5F5F",
"[	c #EEEEEE",
"}	c #737373",
"|	c #080808",
"1	c #575757",
"2	c #727272",
"3	c #8F8F8F",
"4	c #515151",
"5	c #141414",
"6	c #7D7D7D",
"7	c #939393",
"8	c #9E9E9E",
"9	c #020202",
"0	c #303030",
"a	c #A5A5A5",
"b	c #848484",
"c	c #4D4D4D",
"d	c #626262",
"e	c #BEBEBE",
"f	c #868686",
"g	c #5B5B5B",
"h	c #2C2C2C",
"i	c #8B8B8B",
"j	c #969696",
"k	c #A3A3A3",
"l	c #0C0C0C",
"m	c #2B2B2B",
"n	c #525252",
"o	c #C6C6C6",
"p	c #828282",
"q	c #6C6C6C",
"r	c #AAAAAA",
"s	c #272727",
"t	c #343434",
"u	c #292929",
"v	c #090909",
"w	c #494949",
"x	c #A8A8A8",
"y	c #3C3C3C",
"z	c #010101",
"A	c #3A3A3A",
"B	c #818181",
"C	c #101010",
"D	c #696969",
"E	c #747474",
"F	c #D1D1D1",
"G	c #C3C3C3",
"H	c #6E6E6E",
"I	c #555555",
"J	c #6F6F6F",
"K	c #A6A6A6",
"L	c #EFEFEF",
".......+@#+++...",
".......$%&*=-...",
"......+;>,')+...",
"....!~{]^/(_....",
"....:<[}|.12+...",
"....+3455.67+...",
".....8920.ab+...",
".....3|c.def+...",
".....+g&hij2....",
".....+@klmno....",
"....+pgq.;~.....",
"...+rst0uvw<@+..",
"..x'...9y5..zA..",
"..BC.99DEzv.>i..",
"..+F6EGHIgJKL...",
"................"};
